<svg width="24" height="24" viewBox="0 0 24 24" fill="none" xmlns="http://www.w3.org/2000/svg">
<g clip-path="url(#clip0_3557_652)">
<path d="M11.9534 8.86667C12.4688 8.86667 12.8867 8.4488 12.8867 7.93333C12.8867 7.41787 12.4688 7 11.9534 7C11.4379 7 11.02 7.41787 11.02 7.93333C11.02 8.4488 11.4379 8.86667 11.9534 8.86667Z" fill="#BAC5D9"/>
<path d="M14 15.3333H12.6667V10H10.6667C10.4899 10 10.3203 10.0702 10.1953 10.1953C10.0703 10.3203 10 10.4899 10 10.6667C10 10.8435 10.0703 11.013 10.1953 11.1381C10.3203 11.2631 10.4899 11.3333 10.6667 11.3333H11.3334V15.3333H10C9.82323 15.3333 9.65366 15.4036 9.52864 15.5286C9.40361 15.6536 9.33337 15.8232 9.33337 16C9.33337 16.1768 9.40361 16.3464 9.52864 16.4714C9.65366 16.5964 9.82323 16.6667 10 16.6667H14C14.1769 16.6667 14.3464 16.5964 14.4714 16.4714C14.5965 16.3464 14.6667 16.1768 14.6667 16C14.6667 15.8232 14.5965 15.6536 14.4714 15.5286C14.3464 15.4036 14.1769 15.3333 14 15.3333Z" fill="#BAC5D9"/>
<path d="M12 4C10.4178 4 8.87104 4.46919 7.55544 5.34824C6.23985 6.22729 5.21447 7.47672 4.60897 8.93853C4.00347 10.4003 3.84504 12.0089 4.15372 13.5607C4.4624 15.1126 5.22433 16.538 6.34315 17.6569C7.46197 18.7757 8.88743 19.5376 10.4393 19.8463C11.9911 20.155 13.5997 19.9965 15.0615 19.391C16.5233 18.7855 17.7727 17.7602 18.6518 16.4446C19.5308 15.129 20 13.5823 20 12C20 9.87827 19.1571 7.84344 17.6569 6.34315C16.1566 4.84286 14.1217 4 12 4ZM12 18.6667C10.6815 18.6667 9.39253 18.2757 8.2962 17.5431C7.19987 16.8106 6.34539 15.7694 5.84081 14.5512C5.33622 13.333 5.2042 11.9926 5.46144 10.6994C5.71867 9.40619 6.35361 8.21831 7.28596 7.28596C8.21831 6.35361 9.4062 5.71867 10.6994 5.46143C11.9926 5.2042 13.3331 5.33622 14.5512 5.8408C15.7694 6.34539 16.8106 7.19987 17.5431 8.2962C18.2757 9.39253 18.6667 10.6815 18.6667 12C18.6667 12.8755 18.4942 13.7424 18.1592 14.5512C17.8242 15.3601 17.3331 16.095 16.714 16.714C16.095 17.3331 15.3601 17.8242 14.5512 18.1592C13.7424 18.4942 12.8755 18.6667 12 18.6667Z" fill="#BAC5D9"/>
</g>
<defs>
<clipPath id="clip0_3557_652">
<rect width="24" height="24" fill="white"/>
</clipPath>
</defs>
</svg>
